Coordinates
version=1
nRows=17
nColumns=40
inDegrees=yes

Units are S.I. units (second, meters, Newtons, ...)
Angles are in degrees.

endheader
time	pelvis_tilt	pelvis_list	pelvis_rotation	pelvis_tx	pelvis_ty	pelvis_tz	hip_flexion_r	hip_adduction_r	hip_rotation_r	knee_angle_r	knee_angle_r_beta	ankle_angle_r	subtalar_angle_r	mtp_angle_r	hip_flexion_l	hip_adduction_l	hip_rotation_l	knee_angle_l	knee_angle_l_beta	ankle_angle_l	subtalar_angle_l	mtp_angle_l	lumbar_extension	lumbar_bending	lumbar_rotation	arm_flex_r	arm_add_r	arm_rot_r	elbow_flex_r	pro_sup_r	wrist_flex_r	wrist_dev_r	arm_flex_l	arm_add_l	arm_rot_l	elbow_flex_l	pro_sup_l	wrist_flex_l	wrist_dev_l
     40.55142857	     -3.85595875	     -4.18059852	     -2.74344324	      1.09170696	      0.91897307	      0.44509524	     29.30691273	     -0.77865435	    -12.38048156	     16.01712434	     16.01712434	      3.37185747	      3.37531784	      6.94615179	     -4.88935116	     -4.99634765	    -12.05625370	     13.03156986	     13.03156986	     20.37016231	     -5.78185144	     -0.83894597	     -9.72891667	      7.48608342	      3.67240619	    -17.11891748	    -10.57032185	    -18.57021064	     20.63958517	     45.99443059	      0.00000000	      0.00000000	     30.09680383	    -18.21962595	     -5.49420416	     85.77030523	     46.16075151	      0.00000000	      0.00000000
     40.56285714	     -3.90574030	     -4.12848169	     -2.61518068	      1.09321993	      0.91685845	      0.44724101	     29.05001688	     -0.70675168	    -13.06200009	     16.10084084	     16.10084084	      3.15847372	      3.13947514	      6.60526946	     -5.46881264	     -5.20513530	    -12.42064998	     13.31574211	     13.31574211	     20.93922120	     -4.97599028	     -1.04703377	     -9.50709070	      7.38540479	      3.78129903	    -18.49784464	    -10.32150111	    -18.82708988	     20.98441127	     46.00750711	      0.00000000	      0.00000000	     30.41245603	    -18.12123226	     -5.61573368	     87.69586070	     46.24134989	      0.00000000	      0.00000000
     40.57428571	     -3.98714861	     -4.09827773	     -2.48886527	      1.09474874	      0.91478395	      0.44956840	     28.85651088	     -0.60099938	    -13.45660132	     16.49916448	     16.49916448	      2.69096083	      2.48885321	      5.60461832	     -5.87248707	     -5.48661323	    -12.68222990	     13.88338777	     13.88338777	     21.57487314	     -4.30072750	     -1.13131226	     -9.22605472	      7.31951750	      3.75979892	    -19.60417631	    -10.18563186	    -19.02136332	     21.32527553	     46.02172242	      0.00000000	      0.00000000	     30.45585726	    -18.09953446	     -5.77353561	     89.25171392	     46.32480653	      0.00000000	      0.00000000
     40.58571429	     -3.99987257	     -4.15024737	     -2.33289758	      1.09639167	      0.91294913	      0.45205834	     28.44279503	     -0.36720407	    -13.62650960	     16.77681856	     16.77681856	      1.19524507	      1.31611381	      1.62194897	     -6.22977713	     -5.95030339	    -13.16115532	     14.72944555	     14.72944555	     22.45653082	     -3.26636395	     -0.65737205	     -9.04055219	      7.35583421	      3.44081946	    -20.42812384	    -10.15162011	    -19.12229707	     22.02032284	     46.07469482	      0.00000000	      0.00000000	     30.05837109	    -18.32854311	     -6.24294360	     91.04603208	     46.54985553	      0.00000000	      0.00000000
     40.59714286	     -4.06859740	     -4.16212449	     -2.19980605	      1.09782099	      0.91124069	      0.45454645	     28.42742510	     -0.30050797	    -13.74273676	     17.90558926	     17.90558926	      1.01618964	      0.53915074	      0.82070066	     -6.38297600	     -6.29475708	    -12.96742388	     15.72884164	     15.72884164	     22.76249848	     -3.50998074	     -0.90042893	     -8.79200169	      7.34248171	      3.67933217	    -20.98108920	    -10.02540140	    -19.04549394	     21.63309052	     46.09594333	      0.00000000	      0.00000000	     30.16172830	    -17.95876400	     -6.24672060	     91.86935859	     46.59615378	      0.00000000	      0.00000000
     40.60857143	     -3.87166208	     -4.32026011	     -2.06221362	      1.09940050	      0.91031115	      0.45713125	     28.03711265	     -0.09337962	    -13.84854640	     19.00621703	     19.00621703	      1.11140006	     -0.03013902	      0.30928988	     -6.80641478	     -6.79640388	    -12.78111953	     16.76277549	     16.76277549	     22.86642051	     -3.82228739	     -1.11533516	     -8.87880304	      7.53665311	      3.80055189	    -21.25814743	    -10.02783513	    -19.02494050	     21.42930870	     46.10636511	      0.00000000	      0.00000000	     29.92162830	    -17.77202260	     -6.24264164	     92.23873551	     46.61085758	      0.00000000	      0.00000000
     40.62000000	     -4.11033983	     -4.33108097	     -1.94597547	      1.10039501	      0.90875168	      0.45985014	     28.39382839	     -0.00402411	    -13.48703916	     20.52164655	     20.52164655	      1.04730065	     -1.33506363	     -0.94562391	     -6.11394792	     -7.35022343	    -12.67589128	     18.94471498	     18.94471498	     22.91483569	     -4.25860590	     -1.89450048	     -8.53774885	      7.49113472	      4.00324479	    -21.25842411	     -9.95732424	    -18.92923369	     21.06885381	     46.13264631	      0.00000000	      0.00000000	     29.60410224	    -17.38679368	     -6.32417020	     93.60090727	     46.67030913	      0.00000000	      0.00000000
     40.63142857	     -3.99178542	     -4.52229101	     -1.83462068	      1.10160573	      0.90815187	      0.46278538	     28.11292698	      0.38250704	    -12.98658003	     21.57254282	     21.57254282	      0.75474095	     -2.94914826	     -3.17600052	     -5.81816851	     -8.09987436	    -12.60831929	     21.07663183	     21.07663183	     22.29700089	     -4.88702542	     -3.79611474	     -8.60631131	      7.59795738	      3.56112398	    -20.37708436	    -10.21944599	    -18.65708579	     20.17532702	     46.22439898	      0.00000000	      0.00000000	     28.37913557	    -17.56312584	     -7.08850423	     95.43785654	     46.84886789	      0.00000000	      0.00000000
     40.64285714	     -3.86549161	     -4.68318508	     -1.69242303	      1.10250875	      0.90798796	      0.46544083	     27.93813122	      0.56244023	    -12.87955562	     22.89457463	     22.89457463	      1.29824825	     -3.39555237	     -3.75107759	     -5.19112762	     -8.79949237	    -12.14437199	     23.74602345	     23.74602345	     21.66159848	     -5.94888038	     -4.47225610	     -8.79848231	      7.80034024	      3.81003833	    -20.00857146	    -10.30589824	    -18.58261274	     20.00580265	     46.24281292	      0.00000000	      0.00000000	     27.88839785	    -17.12092151	     -7.09847805	     95.73535965	     46.87142533	      0.00000000	      0.00000000
     40.65428571	     -3.79200939	     -4.80359180	     -1.53717618	      1.10319163	      0.90806566	      0.46815736	     27.72377625	      0.76758291	    -12.63008396	     23.97666753	     23.97666753	      1.95968746	     -4.02596158	     -4.11234286	     -4.17662544	     -9.51684006	    -11.62311768	     26.91903254	     26.91903254	     20.59467748	     -7.29920945	     -5.53106853	     -8.86429544	      7.91821021	      3.99083572	    -19.32206610	    -10.38886087	    -18.49323047	     19.84561050	     46.26539640	      0.00000000	      0.00000000	     27.03037252	    -16.65456332	     -7.12570760	     96.06199865	     46.89646786	      0.00000000	      0.00000000
     40.66571429	     -3.70057179	     -4.95257879	     -1.37720019	      1.10370221	      0.90850289	      0.47083962	     27.44227306	      1.03329612	    -12.33926855	     24.95537533	     24.95537533	      2.98396030	     -4.61256557	     -3.54925330	     -3.14885614	    -10.18256325	    -10.85690996	     29.80048354	     29.80048354	     16.96773612	    -10.29125218	    -11.23077381	     -8.99106869	      8.02700829	      3.28108597	    -17.33158929	    -10.79882388	    -18.02459400	     18.16279611	     46.44994302	      0.00000000	      0.00000000	     25.18338125	    -16.57475037	     -8.37454576	     97.40722398	     47.15539072	      0.00000000	      0.00000000
     40.67714286	     -3.60859561	     -5.12571956	     -1.17753604	      1.10399979	      0.90918939	      0.47345104	     27.00443194	      1.30210107	    -12.25998788	     25.60275611	     25.60275611	      3.77978009	     -4.96117191	     -3.73421798	     -1.61333791	    -11.00022880	    -10.14953720	     33.71773073	     33.71773073	     15.20248531	    -11.83602820	    -11.79169599	     -9.11701884	      8.20130377	      3.51525637	    -16.41631448	    -10.92598764	    -17.95639746	     18.33964458	     46.46697896	      0.00000000	      0.00000000	     24.25087135	    -16.02464084	     -8.15511128	     97.10840191	     47.15687653	      0.00000000	      0.00000000
     40.68857143	     -3.41995210	     -5.28751593	     -0.96149186	      1.10414009	      0.91019119	      0.47598056	     26.42826314	      1.57125535	    -12.20490790	     26.17449826	     26.17449826	      4.77541542	     -5.29752522	     -3.29512336	     -0.04978467	    -11.70641019	     -9.20736770	     37.61433083	     37.61433083	     12.42075308	    -14.19314012	    -13.14811403	     -9.34638321	      8.31631948	      3.43968940	    -14.95487714	    -11.13964055	    -17.75515150	     18.28824023	     46.53330048	      0.00000000	      0.00000000	     23.05299980	    -15.59987819	     -8.34909365	     96.76947908	     47.23829637	      0.00000000	      0.00000000
     40.70000000	     -3.30509892	     -5.51258193	     -0.64597233	      1.10405083	      0.91123507	      0.47830572	     25.71004434	      1.88048117	    -12.38700288	     26.30388207	     26.30388207	      5.56570685	     -5.38472553	     -3.43935586	      1.91062221	    -12.57089956	     -8.30641258	     41.90163125	     41.90163125	     10.16351958	    -15.39487115	    -13.02219031	     -9.52026754	      8.60906309	      3.63033120	    -13.78685060	    -11.33902171	    -17.68843769	     18.63267554	     46.53702417	      0.00000000	      0.00000000	     21.94061972	    -14.99729450	     -8.05735197	     96.21408634	     47.21918894	      0.00000000	      0.00000000
     40.71142857	     -3.22100526	     -5.61757111	     -0.33536997	      1.10376558	      0.91236395	      0.48055732	     25.04207274	      2.08140348	    -12.48660088	     26.41620047	     26.41620047	      6.24582963	     -5.55499164	     -3.34680276	      4.02050221	    -13.15967380	     -7.18529334	     46.11720856	     46.11720856	      7.89373829	    -16.74521433	    -11.78330747	     -9.55950269	      8.63660437	      3.51158982	    -12.29503750	    -11.54102579	    -17.54827023	     19.04606587	     46.54446772	      0.00000000	      0.00000000	     20.66214025	    -14.51142573	     -7.91942381	     95.07326802	     47.21432741	      0.00000000	      0.00000000
     40.72285714	     -3.07391698	     -5.84730159	      0.06133434	      1.10332232	      0.91358452	      0.48264629	     24.16429331	      2.39850603	    -12.80338472	     26.25207321	     26.25207321	      6.84921515	     -5.59446196	     -3.37938370	      6.19006475	    -13.89505064	     -6.06891392	     50.23204886	     50.23204886	      5.73065700	    -17.54446408	    -10.59796749	     -9.73166159	      8.85866807	      3.58911116	    -10.85403434	    -11.77127230	    -17.45599510	     19.56279159	     46.53690818	      0.00000000	      0.00000000	     19.49461761	    -13.88917461	     -7.57956103	     94.08141483	     47.18130500	      0.00000000	      0.00000000
     40.73428571	     -3.05091736	     -5.83602373	      0.42742169	      1.10258688	      0.91483039	      0.48440821	     23.44925578	      2.45537599	    -13.02281245	     26.12337902	     26.12337902	      7.56062614	     -5.50110157	     -2.98649129	      8.80366683	    -13.98850942	     -4.48587598	     54.65447206	     54.65447206	      6.36889987	    -17.27992342	     -2.26347829	     -9.69927757	      8.81754643	      3.62682472	     -9.24566175	    -12.00388455	    -16.78322419	     20.06457354	     46.52724400	      0.00000000	      0.00000000	     18.53539901	    -13.12970707	     -7.46560791	     91.61363409	     47.22236226	      0.00000000	      0.00000000
